<svg xmlns="http://www.w3.org/2000/svg" viewBox="0 0 1278.34 171.09"><defs><style>.cls-1{fill:#fff;}</style></defs><title>Asset 4</title><g id="Layer_2" data-name="Layer 2"><g id="Layer_1-2" data-name="Layer 1"><polyline class="cls-1" points="141.56 169.18 101.67 169.18 86.05 132.89 125.92 132.89 111.74 99.97 90.84 51.18 69.69 99.97 55.51 132.89 39.89 169.18 0 169.18 72.57 1.2 108.86 1.2 181.43 169.18 141.54 169.18"/><path class="cls-1" d="M312.23,83.39h37.86v66.14c-18,12.46-46.49,21.56-70,21.56-51.28,0-89.86-36.9-89.86-85.78S229.8,0,283,0c25.16,0,51.75,9.58,69,24.92L327.09,55.59c-12-11.26-29-18.45-44.33-18.45-27.08,0-47.45,20.85-47.45,48.17,0,27.55,20.61,48.4,47.93,48.4,8.38,0,18.93-2.88,29-7.91Z"/><path class="cls-1" d="M480,169.17l-24.44-46.48H422.93v46.48H379.08V1.2h75.48c44.57,0,70,21.56,70,59,0,25.4-10.54,44.09-29.95,54.15l35,54.87Zm-57-81.47H454.8c17.73,0,28-9.1,28-26.12,0-16.53-10.31-25.4-28-25.4H422.93Z"/><path class="cls-1" d="M685.08,1.2v35H596.42V67.57h80v34.75l-80,.24v31.63h91.05v35H552.57V1.2Z"/><path class="cls-1" d="M846.82,1.2v35H758.16V67.57h80v34.75l-80,.24v31.63h91.05v35H714.31V1.2Z"/><path class="cls-1" d="M1037.79,85.07c0,50.08-36.66,84.1-91,84.1H876.05V1.2h72.36C1001.61,1.2,1037.79,35.23,1037.79,85.07ZM993,85.55c0-29-18.93-48.65-45.52-48.65H919.9v96.81h29.71C975,133.71,993,114.3,993,85.55Z"/><polyline class="cls-1" points="1179.1 169.18 1139.21 169.18 1123.59 132.89 1163.47 132.89 1149.29 99.97 1128.39 51.18 1107.24 99.97 1093.06 132.89 1077.44 169.18 1037.55 169.18 1110.12 1.2 1146.41 1.2 1218.98 169.18 1179.09 169.18"/><rect class="cls-1" x="1238.44" y="132.89" width="39.89" height="36.29"/></g></g></svg>